<svg id="Capa_1" enable-background="new 0 0 512 512" height="512" viewBox="0 0 512 512" width="512" xmlns="http://www.w3.org/2000/svg"><g><g><path d="m164.489 302.734h59.559v29.997h-59.559z" fill="#a3b1cc" transform="matrix(.707 -.707 .707 .707 -167.771 230.43)"/></g><g><path d="m332 360c-99.258 0-180-80.742-180-180s80.742-180 180-180 180 80.742 180 180-80.742 180-180 180z" fill="#cfd7e6"/></g><path d="m512 180c0-99.258-80.742-180-180-180v360c99.258 0 180-80.742 180-180z" fill="#a3b1cc"/><circle cx="332" cy="180" fill="#f3f5f9" r="150"/><path d="m482 180c0-82.71-67.29-150-150-150v300c82.71 0 150-67.29 150-150z" fill="#e1e6f0"/><g id="Research_1_"><g><path d="m129.586 403.797-21.382-21.382c-11.716-11.716-11.716-30.711 0-42.426l11.892-11.892c16.611-16.641 45.615-17.241 63.53-.278 19.007 20.004 16.557 47.837.278 64.087l-11.892 11.892c-11.716 11.714-30.711 11.714-42.426-.001z" fill="#f73"/></g></g><g><path d="m45 512c-24.814 0-45-20.186-45-45 0-12.158 4.658-23.496 13.11-31.919l95.091-95.091 63.809 63.809-95.105 95.105c-8.409 8.438-19.747 13.096-31.905 13.096z" fill="#6b5b73"/></g><g><path d="m331.802 63.665s-27.858 45.431-29.707 77.075c-20.061-7.656-54.52-13.924-54.52-13.924s13.135 32.565 24.339 54.775c-17.966 8.875-50.437 22.245-50.437 22.245s40.615 22.749 67.769 28.64c-11.424 11.424-17.58 31.382-17.58 31.382 11.07.008 30.252-7.862 45.252-23.291v59.429h29.765v-59.429c15 15.429 34.182 23.299 45.252 23.291 0 0-6.156-19.958-17.58-31.382 27.154-5.89 67.769-28.64 67.769-28.64s-32.471-13.37-50.437-22.245c11.204-22.21 24.339-54.775 24.339-54.775s-34.459 6.269-54.52 13.924c-1.846-31.644-29.704-77.075-29.704-77.075z" fill="#8c6"/><path d="m346.685 299.997v-59.429c15 15.429 34.182 23.299 45.252 23.291 0 0-6.156-19.958-17.58-31.382 27.154-5.89 67.769-28.64 67.769-28.64s-32.471-13.37-50.437-22.245c11.204-22.21 24.339-54.775 24.339-54.775s-34.459 6.269-54.52 13.924c-1.849-31.645-29.707-77.075-29.707-77.075v236.332h14.884z" fill="#5ab348"/></g></g></svg>